<?xml version="1.0" standalone="no"?>
<!DOCTYPE svg PUBLIC "-//W3C//DTD SVG 20010904//EN"
 "http://www.w3.org/TR/2001/REC-SVG-20010904/DTD/svg10.dtd">
<svg version="1.0" xmlns="http://www.w3.org/2000/svg"
 width="377.000000pt" height="377.000000pt" viewBox="0 0 377.000000 377.000000"
 preserveAspectRatio="xMidYMid meet">
<metadata>
Created by potrace 1.11, written by Peter Selinger 2001-2013
</metadata>
<g transform="translate(0.000000,377.000000) scale(0.100000,-0.100000)"
fill="#000000" stroke="none">
<path d="M1765 3350 l-180 -120 -130 -1 c-497 -3 -483 -2 -500 -26 -9 -12 -21
-28 -28 -35 -7 -7 -47 -56 -89 -108 l-77 -95 -198 -74 c-109 -40 -243 -91
-299 -112 l-100 -39 -23 -58 c-13 -31 -29 -71 -37 -89 -8 -17 -14 -35 -14 -40
0 -4 -6 -20 -14 -35 -23 -44 -40 -101 -42 -143 -1 -22 -4 -152 -8 -290 -4
-137 -9 -311 -11 -385 -2 -74 -7 -220 -10 -325 l-5 -189 91 -136 c51 -74 92
-136 93 -136 1 -2 97 -9 231 -19 39 -3 84 -7 102 -10 26 -4 41 3 86 41 l55 45
49 -33 c26 -19 77 -54 112 -78 l63 -45 195 3 194 3 -6 -58 c-3 -32 -8 -65 -11
-74 -2 -8 19 -53 47 -100 28 -46 60 -100 71 -119 28 -50 44 -63 75 -65 163
-10 265 -17 298 -20 22 -2 90 -7 150 -10 61 -4 128 -8 150 -10 22 -1 87 -6
145 -9 105 -7 154 -10 305 -21 44 -3 112 -8 150 -10 39 -3 105 -7 148 -10 75
-5 86 -3 230 45 84 28 229 76 322 106 94 31 175 62 181 68 10 9 56 96 231 437
13 27 13 48 -2 209 -10 116 -16 184 -21 245 -2 33 -6 87 -9 120 -3 33 -7 85
-9 115 -10 114 -17 207 -21 255 -3 28 -7 79 -10 115 -3 36 -7 90 -10 120 -5
61 -12 140 -20 245 -3 39 -8 93 -10 121 -4 42 -74 251 -177 524 l-21 55 -214
130 c-118 71 -216 132 -219 136 -3 5 -10 6 -17 4 -7 -2 -25 -6 -42 -9 -30 -4
-198 -33 -245 -42 -110 -20 -99 -23 -237 66 l-128 83 -200 3 -200 3 -180 -119z"/>
</g>
</svg>
